<?xml version="1.0" standalone="no"?>
<!DOCTYPE svg PUBLIC "-//W3C//DTD SVG 20010904//EN"
 "http://www.w3.org/TR/2001/REC-SVG-20010904/DTD/svg10.dtd">
<svg version="1.0" xmlns="http://www.w3.org/2000/svg"
 width="250.000000pt" height="250.000000pt" viewBox="0 0 250.000000 250.000000"
 preserveAspectRatio="xMidYMid meet">
<metadata>
Created by potrace 1.11, written by Peter Selinger 2001-2013
</metadata>
<g transform="translate(0.000000,250.000000) scale(0.100000,-0.100000)"
fill="#000000" stroke="none">
<path d="M1064 2415 c-578 -100 -994 -587 -996 -1165 0 -129 7 -189 37 -305
54 -206 156 -384 306 -534 177 -177 375 -283 619 -332 76 -15 127 -18 250 -15
158 4 170 5 274 32 257 66 509 241 668 464 85 120 174 326 192 446 4 21 10 64
15 94 14 85 4 323 -15 379 -2 8 -7 30 -10 50 -8 50 -68 204 -111 281 -140 257
-385 464 -658 555 -175 59 -403 79 -571 50z m387 -44 c425 -73 791 -406 903
-821 78 -290 49 -572 -85 -830 -128 -246 -324 -426 -588 -539 -29 -12 -61 -24
-70 -27 -9 -2 -51 -12 -94 -23 -254 -64 -532 -33 -772 87 -343 170 -575 494
-630 882 -12 83 -7 265 9 345 51 248 151 437 320 606 177 178 415 297 651 325
22 3 41 7 43 8 7 8 253 -2 313 -13z"/>
<path d="M527 1528 c-109 -208 -158 -309 -153 -317 3 -4 16 -6 29 -4 16 3 30
20 46 52 l22 48 102 -1 102 -1 22 -44 c25 -50 37 -61 64 -54 24 7 24 4 -9 66
-16 29 -61 114 -101 190 -40 75 -75 137 -79 137 -4 0 -24 -33 -45 -72z m123
-170 c0 -5 -36 -8 -80 -8 l-80 0 41 82 41 82 39 -74 c21 -41 38 -78 39 -82z"/>
<path d="M1144 1590 l-29 -5 -1 -184 c0 -176 0 -183 20 -191 12 -4 24 -6 29
-3 4 2 7 37 7 77 l0 74 51 -4 c28 -1 52 -4 53 -6 21 -35 113 -137 126 -141 42
-11 41 11 -6 69 -26 32 -51 64 -56 71 -7 8 1 17 22 28 50 26 67 84 46 153 -11
33 -67 56 -152 62 -44 3 -94 3 -110 0z m176 -53 c35 -17 50 -53 39 -87 -13
-36 -47 -50 -124 -50 l-65 0 0 74 0 74 63 1 c34 0 73 -5 87 -12z"/>
<path d="M1899 1587 c-59 -22 -98 -56 -122 -105 -71 -144 53 -299 223 -279 58
7 130 41 130 63 0 20 -29 30 -49 16 -86 -62 -213 -37 -254 51 -31 65 -20 122
34 174 54 54 147 60 209 14 24 -17 30 -18 46 -7 16 12 16 16 4 31 -37 44 -154
67 -221 42z"/>
<path d="M924 890 c2 -54 14 -97 17 -57 2 30 4 35 11 43 11 10 58 -24 58 -41
0 -8 5 -15 10 -15 14 0 13 23 -2 38 -9 9 -9 18 1 38 16 37 -1 54 -54 54 l-42
0 1 -60z m80 31 c-2 -25 -5 -28 -31 -27 -25 1 -36 17 -26 38 6 11 58 2 57 -11z"/>
<path d="M1150 885 c0 -37 4 -65 10 -65 6 0 10 28 10 65 0 37 -4 65 -10 65 -6
0 -10 -28 -10 -65z"/>
<path d="M1295 888 l0 -63 37 -3 c28 -2 40 2 52 20 37 52 8 108 -55 108 l-35
0 1 -62z m84 18 c10 -24 -5 -62 -27 -71 -32 -12 -49 29 -35 86 5 23 53 12 62
-15z"/>
<path d="M1520 885 l0 -65 52 0 c28 0 48 3 44 8 -4 4 -21 7 -38 7 -23 0 -33 6
-39 23 -8 20 -6 22 31 22 22 0 40 5 40 10 0 6 -18 10 -40 10 -36 0 -40 2 -31
18 7 12 19 18 40 16 17 -1 31 2 31 7 0 5 -20 9 -45 9 l-45 0 0 -65z"/>
</g>
</svg>
